<svg width="24" height="24" viewBox="0 0 24 24" fill="none" xmlns="http://www.w3.org/2000/svg">
<path d="M21.9616 14.5673C21.4839 16.2774 20.5667 17.8325 19.3015 19.078C18.0362 20.3236 16.4669 21.2161 14.7497 21.6669C13.0325 22.1176 11.2272 22.1108 9.51341 21.6472C7.79962 21.1836 6.23706 20.2794 4.98117 19.0244C3.72528 17.7694 2.81982 16.2074 2.35488 14.4938C1.88994 12.7803 1.88171 10.9748 2.33101 9.25704C2.78032 7.5393 3.67149 5.96913 4.91589 4.70274C6.16029 3.43635 7.71454 2.51787 9.42403 2.03867C9.54928 1.99833 9.68252 1.98939 9.81204 2.01261C9.94155 2.03584 10.0634 2.09053 10.1668 2.17188C10.2702 2.25323 10.3521 2.35874 10.4052 2.47914C10.4583 2.59954 10.481 2.73114 10.4714 2.86238C10.4711 2.92464 10.4608 2.98645 10.4409 3.04543C10.0375 4.50163 10.0275 6.03879 10.412 7.5001C10.7965 8.96141 11.5617 10.2946 12.6296 11.3636C13.6975 12.4326 15.0297 13.1991 16.4905 13.5851C17.9513 13.9711 19.4884 13.9626 20.9448 13.5605L21.1685 13.5199C21.3454 13.5185 21.5181 13.5741 21.6609 13.6785C21.8038 13.7829 21.9092 13.9305 21.9616 14.0995C22.0128 14.2513 22.0128 14.4156 21.9616 14.5673Z" fill="#5554AA"/>
</svg>
