<svg width="24" height="24" viewBox="0 0 24 24" fill="none" xmlns="http://www.w3.org/2000/svg">
<path d="M11.0909 5.63636V2H12.9091V5.63636H11.0909ZM17.1364 8.13636L15.8864 6.88636L18.4318 4.27273L19.7045 5.56818L17.1364 8.13636ZM18.3636 12.9091V11.0909H22V12.9091H18.3636ZM11.0909 22V18.3636H12.9091V22H11.0909ZM6.86364 8.09091L4.27273 5.56818L5.56818 4.29545L8.13636 6.86364L6.86364 8.09091ZM18.4091 19.7273L15.8864 17.1136L17.1136 15.8864L19.7045 18.3864L18.4091 19.7273ZM2 12.9091V11.0909H5.63636V12.9091H2ZM5.56818 19.7273L4.29545 18.4318L6.84091 15.8864L7.5 16.5L8.15909 17.1364L5.56818 19.7273ZM12 17.4545C10.4848 17.4545 9.19697 16.9242 8.13636 15.8636C7.07576 14.803 6.54545 13.5152 6.54545 12C6.54545 10.4848 7.07576 9.19697 8.13636 8.13636C9.19697 7.07576 10.4848 6.54545 12 6.54545C13.5152 6.54545 14.803 7.07576 15.8636 8.13636C16.9242 9.19697 17.4545 10.4848 17.4545 12C17.4545 13.5152 16.9242 14.803 15.8636 15.8636C14.803 16.9242 13.5152 17.4545 12 17.4545Z" fill="#C2C1FF"/>
</svg>
